<svg width="189" height="211" viewBox="0 0 189 211" fill="none" xmlns="http://www.w3.org/2000/svg">
<path fill-rule="evenodd" clip-rule="evenodd" d="M0.54944 96.3834C5.68627 49.0901 43.8261 10.4641 94.0023 1.7404C114.461 -1.81561 133.358 0.214575 152.871 6.57989C159.703 8.80765 176.692 19.0302 176.692 19.0302C176.692 19.0302 158.417 57.0703 157.318 57.8301C157.318 57.8301 154.832 56.6469 152.889 55.4226C147.272 51.8827 134.01 48.4507 124.572 47.1663C111.037 45.3237 94.3566 48.099 82.2925 54.2012C67.9984 61.4312 56.9865 75.5996 52.7095 92.2624C50.6155 100.42 51.3423 117.225 54.0969 124.376C57.112 132.202 63.9368 143.03 65.0666 141.78C65.4573 141.347 77.3443 112.09 94.2838 69.8663L100.705 53.862L110.4 53.8581L120.096 53.8543L132.901 85.4826L145.706 117.111L145.967 99.7752L146.228 82.4396H152.889H159.076V96.3834C159.179 103.742 159.444 109.679 159.666 109.575C167.885 105.735 175.765 105.509 180.453 108.98C190.129 116.141 191.877 129.884 184.219 138.589C178.776 144.778 169.484 146.401 162.499 142.824C161.041 142.277 158.631 140.934 158.631 140.934C158.628 141.806 158.631 142.678 158.631 143.551C158.631 143.551 156.636 143.551 146.337 143.551H133.96L130.753 134.851L127.483 126.01L110.595 125.75L93.7074 125.49L90.7431 133.238C89.1125 137.5 87.3652 143.696 87.3652 143.696C87.3652 143.696 85.5718 143.698 76.5285 143.725L65.2782 143.761L70.7435 148.904C87.6656 164.826 116.855 168.338 138.525 160.997C143.527 159.302 149.421 156.865 151.621 155.581C153.821 154.299 156.561 152.703 157.257 152.709C163.519 165.355 170.362 179.746 176.769 192.393C176.769 192.393 156.335 203.713 147.487 206.141C115.382 214.955 82.8583 211.695 56.7137 197.042C36.3589 185.635 19.6995 168.745 9.61763 147.676C1.68882 131.108 -1.35305 113.901 0.54944 96.3834ZM163.714 117.86C158.429 120.076 157.245 127.897 161.599 131.831C165.627 135.469 174.406 133.382 175.241 126.946C176.076 120.51 170.357 115.074 163.714 117.86ZM105.712 94.1263L101.344 106.179H111.099H120.018L115.468 93.6902L110.663 81.0435L105.712 94.1263Z" fill="white"/>
</svg>
